<mxfile host="app.diagrams.net" modified="2024-01-01T17:55:49.010Z" agent="Mozilla/5.0 (Macintosh; Intel Mac OS X 10.15; rv:121.0) Gecko/20100101 Firefox/121.0" version="22.1.16" etag="nToRsdH35qHgbOwQaiNO" type="github">
  <diagram name="第 1 页" id="MUOPNLpkkjX5uUFRJLd1">
    <mxGraphModel>
      <root>
        <mxCell id="0" />
        <mxCell id="1" parent="0" />
      </root>
    </mxGraphModel>
  </diagram>
</mxfile>
